<svg width="271" height="122" viewBox="0 0 271 122" fill="none" xmlns="http://www.w3.org/2000/svg">
<path d="M50 113C75.9574 113 97 91.9574 97 66C97 40.0426 75.9574 19 50 19C24.0426 19 3 40.0426 3 66C3 91.9574 24.0426 113 50 113Z" stroke="#D8D8D8" stroke-width="5" stroke-linecap="round" stroke-linejoin="round"/>
<path d="M37.9062 55.7461C37.9062 48.2591 41.9102 41.3255 49.918 34.9453L64.5664 44.7109C57.9258 48.8776 54.6055 53.3047 54.6055 57.9922C54.6055 59.9453 55.2565 62.0286 56.5586 64.2422C57.9258 66.3906 59.293 68.5391 60.6602 70.6875C62.0273 72.8359 62.7109 74.8542 62.7109 76.7422C62.7109 84.4245 57.3724 90.3815 46.6953 94.6133L42.8867 89.4375C45.4909 88.0052 47.2812 86.638 48.2578 85.3359C49.2995 83.9688 49.8203 82.4714 49.8203 80.8438C49.8203 79.2161 49.2018 77.4258 47.9648 75.4727C46.7279 73.4544 45.3607 71.6315 43.8633 70.0039C42.3659 68.3112 40.9987 66.1953 39.7617 63.6562C38.5247 61.0521 37.9062 58.4154 37.9062 55.7461Z" fill="#D3D3D3"/>
<path d="M78.2051 92.7627C77.3392 92.7627 76.7207 92.7318 76.3496 92.6699C74.6178 91.4948 73.2262 89.763 72.1748 87.4746C71.1852 85.1862 70.6904 82.6195 70.6904 79.7744C70.6904 76.8675 71.8965 74.7028 74.3086 73.2803C76.7826 71.7959 81.2975 71.0537 87.8535 71.0537C90.2656 71.0537 92.8324 71.2083 95.5537 71.5176L95.3682 69.8477C95.1826 67.8066 94.224 66.1986 92.4922 65.0234C90.7604 63.8483 88.5339 63.2607 85.8125 63.2607C83.153 63.2607 80.4935 64.0957 77.834 65.7656L74.4941 54.8184C78.8236 53.0247 83.7715 52.1279 89.3379 52.1279C94.9043 52.1279 99.2956 53.3958 102.512 55.9316C105.79 58.4056 107.429 62.3021 107.429 67.6211C107.429 68.8581 107.367 69.8167 107.243 70.4971L105.202 91.4639L97.5947 92.1133L96.4814 81.166H95.9248C94.193 84.8151 91.7809 87.6602 88.6885 89.7012C85.6579 91.7422 82.1634 92.7627 78.2051 92.7627ZM95.832 74.7646L91.8428 74.6719C88.5029 74.6719 85.7507 74.8574 83.5859 75.2285C82.9056 76.651 82.5654 77.9189 82.5654 79.0322C82.5654 80.1455 82.6891 81.2279 82.9365 82.2793C83.2458 83.2689 83.5859 83.9183 83.957 84.2275C90.0182 83.2998 93.9766 80.1455 95.832 74.7646ZM137.023 57.7871C135.168 57.7871 133.56 58.1582 132.199 58.9004C131.519 62.3639 131.179 65.9512 131.179 69.6621C131.179 77.5169 131.704 82.6504 132.756 85.0625C135.168 84.6296 137.735 82.9906 140.456 80.1455C141.94 78.5993 143.146 76.4036 144.074 73.5586C145.064 70.7135 145.559 67.4355 145.559 63.7246C145.559 63.1061 145.497 61.9928 145.373 60.3848C143.023 58.653 140.24 57.7871 137.023 57.7871ZM142.59 107.699C137.518 107.699 132.323 105.937 127.004 102.411L129.045 98.6074C133.56 100.587 137.302 101.576 140.271 101.576C143.239 101.576 145.404 100.772 146.765 99.1641C148.187 97.6178 148.898 95.5459 148.898 92.9482C148.898 92.1442 148.373 86.516 147.321 76.0635H146.672C142.899 86.1449 136.529 91.1855 127.561 91.1855C126.324 91.1855 125.303 91 124.499 90.6289C122.644 88.7734 121.128 86.0521 119.953 82.4648C118.84 78.8158 118.283 74.3936 118.283 69.1982C118.283 64.0029 119.458 60.0755 121.809 57.416C124.159 54.6947 128.241 53.334 134.055 53.334C138.322 53.334 142.002 54.3236 145.095 56.3027L146.765 54.0762L161.423 51.9424L156.135 94.4326C155.64 98.5146 154.217 101.731 151.867 104.081C149.517 106.493 146.424 107.699 142.59 107.699ZM176.823 92.7627C175.957 92.7627 175.339 92.7318 174.968 92.6699C173.236 91.4948 171.844 89.763 170.793 87.4746C169.803 85.1862 169.309 82.6195 169.309 79.7744C169.309 76.8675 170.515 74.7028 172.927 73.2803C175.401 71.7959 179.916 71.0537 186.472 71.0537C188.884 71.0537 191.451 71.2083 194.172 71.5176L193.986 69.8477C193.801 67.8066 192.842 66.1986 191.11 65.0234C189.379 63.8483 187.152 63.2607 184.431 63.2607C181.771 63.2607 179.112 64.0957 176.452 65.7656L173.112 54.8184C177.442 53.0247 182.39 52.1279 187.956 52.1279C193.522 52.1279 197.914 53.3958 201.13 55.9316C204.408 58.4056 206.047 62.3021 206.047 67.6211C206.047 68.8581 205.985 69.8167 205.861 70.4971L203.82 91.4639L196.213 92.1133L195.1 81.166H194.543C192.811 84.8151 190.399 87.6602 187.307 89.7012C184.276 91.7422 180.782 92.7627 176.823 92.7627ZM194.45 74.7646L190.461 74.6719C187.121 74.6719 184.369 74.8574 182.204 75.2285C181.524 76.651 181.184 77.9189 181.184 79.0322C181.184 80.1455 181.307 81.2279 181.555 82.2793C181.864 83.2689 182.204 83.9183 182.575 84.2275C188.636 83.2998 192.595 80.1455 194.45 74.7646ZM234.157 71.7031C233.291 72.0124 232.58 72.167 232.023 72.167L229.982 91.2783L222.375 92.0205L218.015 43.1289C220.674 42.263 224.23 41.4899 228.684 40.8096C233.137 40.0674 237.404 39.6963 241.486 39.6963C247.98 39.6963 253.176 40.9023 257.072 43.3145C257.938 46.0358 258.371 48.5407 258.371 50.8291C258.371 57.1995 254.722 62.4876 247.424 66.6934L260.134 90.9072L254.846 93.876L234.157 71.7031ZM243.713 52.9629C243.713 49.3757 242.136 46.5924 238.981 44.6133C237.744 44.6133 236.384 44.8916 234.899 45.4482L232.58 67.3428C236.105 65.7347 238.827 63.6009 240.744 60.9414C242.723 58.2819 243.713 55.6224 243.713 52.9629Z" fill="#D8D8D8"/>
</svg>
